<svg id="Layer_1" data-name="Layer 1" xmlns="http://www.w3.org/2000/svg" xmlns:xlink="http://www.w3.org/1999/xlink" viewBox="0 0 917.78 1000"><defs><style>.cls-1{fill:none;}.cls-2{fill:#f9f9f9;}.cls-3{fill:url(#New_Pattern);}</style><pattern id="New_Pattern" data-name="New Pattern" width="89.06" height="68.85" patternTransform="matrix(1, 0, 0, -1, 51.53, 830.58)" patternUnits="userSpaceOnUse" viewBox="0 0 89.06 68.85"><rect class="cls-1" width="89.06" height="68.85"/><rect class="cls-1" width="89.06" height="68.85"/><path class="cls-2" d="M88.13-8.91c1,1,1.2,2.7.53,4.74A15.37,15.37,0,0,1,84.9,1.58c-2.57,2.57-5.62,4.16-8,4.16a3.46,3.46,0,0,1-2.51-.92c-1-1-1.2-2.7-.53-4.74a15.37,15.37,0,0,1,3.76-5.75c2.57-2.57,5.62-4.16,8-4.16A3.46,3.46,0,0,1,88.13-8.91Zm-4,9.74A14.35,14.35,0,0,0,87.66-4.5c.54-1.62.44-2.95-.27-3.66a2.4,2.4,0,0,0-1.77-.62c-2.05,0-4.89,1.51-7.23,3.85A14.35,14.35,0,0,0,74.88.4c-.54,1.62-.44,3,.27,3.66a2.4,2.4,0,0,0,1.77.62C79,4.69,81.81,3.17,84.15.83Z"/><path class="cls-2" d="M53-15.8c1.57,1.57,1.84,4.19.78,7.4A24.73,24.73,0,0,1,47.75.86C43.62,5,38.72,7.56,35,7.56a5.36,5.36,0,0,1-3.87-1.41c-1.57-1.57-1.84-4.19-.78-7.4a24.73,24.73,0,0,1,6.07-9.26c4.14-4.13,9-6.7,12.8-6.7A5.32,5.32,0,0,1,53-15.8ZM47,.11a23.67,23.67,0,0,0,5.81-8.85c.93-2.81.75-5-.52-6.32a4.24,4.24,0,0,0-3.12-1.11c-3.43,0-8.16,2.51-12,6.39A23.67,23.67,0,0,0,31.32-.93c-.93,2.81-.75,5.05.52,6.32A4.24,4.24,0,0,0,35,6.49C38.4,6.51,43.13,4,47,.11Z"/><path class="cls-2" d="M58.45,2.57c1,1,1.2,2.7.53,4.74a15.37,15.37,0,0,1-3.76,5.75c-2.57,2.57-5.62,4.16-8,4.16a3.46,3.46,0,0,1-2.51-.92c-1-1-1.2-2.7-.53-4.74A15.37,15.37,0,0,1,48,5.81c2.57-2.57,5.62-4.16,8-4.16A3.41,3.41,0,0,1,58.45,2.57Zm-4,9.74A14.35,14.35,0,0,0,58,7c.54-1.62.44-2.95-.27-3.66a2.4,2.4,0,0,0-1.77-.62c-2,0-4.89,1.51-7.23,3.85a14.35,14.35,0,0,0-3.51,5.33c-.54,1.62-.44,2.95.27,3.66a2.4,2.4,0,0,0,1.77.62C49.29,16.16,52.12,14.65,54.47,12.31Z"/><path class="cls-2" d="M23.36-4.32c1.57,1.57,1.84,4.19.78,7.4a24.73,24.73,0,0,1-6.07,9.26C13.94,16.47,9,19,5.28,19a5.36,5.36,0,0,1-3.87-1.41c-1.57-1.57-1.84-4.19-.78-7.4A24.73,24.73,0,0,1,6.7,1c4.13-4.13,9-6.7,12.79-6.7A5.26,5.26,0,0,1,23.36-4.32Zm-6,15.91a23.67,23.67,0,0,0,5.81-8.85c.93-2.81.75-5.05-.52-6.32A4.24,4.24,0,0,0,19.5-4.69c-3.43,0-8.16,2.51-12,6.39a23.67,23.67,0,0,0-5.81,8.85c-.93,2.81-.75,5,.52,6.32A4.24,4.24,0,0,0,5.28,18C8.71,18,13.44,15.47,17.33,11.59Z"/><path class="cls-2" d="M28.76,14c1,1,1.2,2.7.53,4.74a15.37,15.37,0,0,1-3.76,5.75c-2.57,2.57-5.62,4.16-8,4.16a3.46,3.46,0,0,1-2.51-.92c-1-1-1.2-2.7-.53-4.74a15.37,15.37,0,0,1,3.76-5.75c2.57-2.57,5.62-4.16,8-4.16A3.47,3.47,0,0,1,28.76,14Zm-4,9.74a14.35,14.35,0,0,0,3.51-5.33c.54-1.62.44-2.95-.27-3.66a2.4,2.4,0,0,0-1.77-.62c-2.05,0-4.89,1.51-7.23,3.85a14.35,14.35,0,0,0-3.51,5.33C15,25,15.07,26.3,15.78,27a2.4,2.4,0,0,0,1.77.62C19.6,27.64,22.44,26.12,24.78,23.78Z"/><path class="cls-2" d="M82.73,7.15c1.57,1.57,1.84,4.19.78,7.4a24.73,24.73,0,0,1-6.07,9.26c-4.13,4.13-9,6.7-12.79,6.7a5.36,5.36,0,0,1-3.87-1.41c-1.57-1.57-1.84-4.19-.78-7.4a24.73,24.73,0,0,1,6.07-9.26c4.13-4.13,9-6.7,12.79-6.7A5.33,5.33,0,0,1,82.73,7.15Zm-6,15.91a23.67,23.67,0,0,0,5.81-8.85c.93-2.81.75-5.05-.52-6.32a4.28,4.28,0,0,0-3.13-1.1c-3.43,0-8.16,2.51-12,6.39A23.67,23.67,0,0,0,61,22c-.93,2.81-.75,5,.52,6.32a4.24,4.24,0,0,0,3.12,1.1C68.09,29.46,72.82,27,76.7,23.06Z"/><path class="cls-2" d="M88.13,25.52c1,1,1.2,2.7.53,4.74A15.37,15.37,0,0,1,84.9,36c-2.57,2.57-5.62,4.16-8,4.16a3.46,3.46,0,0,1-2.51-.92c-1-1-1.2-2.7-.53-4.74a15.37,15.37,0,0,1,3.76-5.75c2.57-2.57,5.62-4.16,8-4.16A3.38,3.38,0,0,1,88.13,25.52Zm-4,9.74a14.35,14.35,0,0,0,3.51-5.33c.54-1.62.44-2.95-.27-3.66a2.4,2.4,0,0,0-1.77-.62c-2.05,0-4.89,1.51-7.23,3.85a14.35,14.35,0,0,0-3.51,5.33c-.54,1.62-.44,3,.27,3.66a2.4,2.4,0,0,0,1.77.62C79,39.11,81.81,37.6,84.15,35.26Z"/><path class="cls-2" d="M53,18.63c1.57,1.57,1.84,4.19.78,7.4a24.73,24.73,0,0,1-6.07,9.26C43.62,39.42,38.72,42,35,42a5.36,5.36,0,0,1-3.87-1.41c-1.57-1.57-1.84-4.19-.78-7.4a24.73,24.73,0,0,1,6.07-9.26c4.13-4.13,9-6.7,12.79-6.7A5.25,5.25,0,0,1,53,18.63ZM47,34.54a23.67,23.67,0,0,0,5.81-8.85c.93-2.81.75-5.05-.52-6.32a4.24,4.24,0,0,0-3.12-1.11c-3.43,0-8.16,2.51-12,6.39a23.67,23.67,0,0,0-5.81,8.85c-.93,2.81-.75,5,.52,6.32A4.24,4.24,0,0,0,35,40.92C38.4,40.93,43.13,38.42,47,34.54Z"/><path class="cls-2" d="M58.45,37c1,1,1.2,2.7.53,4.74a15.37,15.37,0,0,1-3.76,5.75c-2.57,2.57-5.62,4.16-8,4.16a3.46,3.46,0,0,1-2.51-.92c-1-1-1.2-2.7-.53-4.74A15.37,15.37,0,0,1,48,40.23c2.57-2.57,5.62-4.16,8-4.16A3.49,3.49,0,0,1,58.45,37Zm-4,9.74A14.35,14.35,0,0,0,58,41.4c.54-1.62.44-2.95-.27-3.66a2.4,2.4,0,0,0-1.77-.62c-2,0-4.89,1.51-7.23,3.85A14.35,14.35,0,0,0,45.2,46.3c-.54,1.62-.44,3,.27,3.66a2.4,2.4,0,0,0,1.77.62C49.29,50.58,52.12,49.07,54.47,46.73Z"/><path class="cls-2" d="M23.36,30.1c1.57,1.57,1.84,4.19.78,7.4a24.73,24.73,0,0,1-6.07,9.26c-4.13,4.13-9,6.7-12.79,6.7a5.36,5.36,0,0,1-3.87-1.41c-1.57-1.57-1.84-4.19-.78-7.4A24.73,24.73,0,0,1,6.7,35.39c4.13-4.13,9-6.7,12.79-6.7A5.34,5.34,0,0,1,23.36,30.1ZM17.33,46a23.67,23.67,0,0,0,5.81-8.85c.93-2.81.75-5-.52-6.32a4.24,4.24,0,0,0-3.12-1.11c-3.43,0-8.16,2.51-12,6.39A23.67,23.67,0,0,0,1.64,45C.71,47.78.89,50,2.16,51.29a4.24,4.24,0,0,0,3.12,1.1C8.71,52.4,13.44,49.9,17.33,46Z"/><path class="cls-2" d="M28.76,48.47c1,1,1.2,2.7.53,4.74A15.37,15.37,0,0,1,25.53,59c-2.57,2.57-5.62,4.16-8,4.16a3.46,3.46,0,0,1-2.51-.92c-1-1-1.2-2.7-.53-4.74a15.37,15.37,0,0,1,3.76-5.75c2.57-2.57,5.62-4.16,8-4.16A3.39,3.39,0,0,1,28.76,48.47Zm-4,9.74a14.35,14.35,0,0,0,3.51-5.33c.54-1.62.44-3-.27-3.66a2.4,2.4,0,0,0-1.77-.62c-2.05,0-4.89,1.51-7.23,3.85a14.35,14.35,0,0,0-3.51,5.33c-.54,1.62-.44,2.95.27,3.66a2.4,2.4,0,0,0,1.77.62C19.6,62.06,22.44,60.55,24.78,58.21Z"/><path class="cls-2" d="M82.73,41.57c1.57,1.57,1.84,4.19.78,7.4a24.73,24.73,0,0,1-6.07,9.26c-4.13,4.13-9,6.7-12.79,6.7a5.36,5.36,0,0,1-3.87-1.41c-1.57-1.57-1.84-4.19-.78-7.4a24.73,24.73,0,0,1,6.07-9.26c4.13-4.13,9-6.7,12.79-6.7A5.33,5.33,0,0,1,82.73,41.57Zm-6,15.92a23.67,23.67,0,0,0,5.81-8.85c.93-2.81.75-5-.52-6.32a4.24,4.24,0,0,0-3.12-1.11c-3.43,0-8.16,2.51-12.05,6.39A23.67,23.67,0,0,0,61,56.45c-.93,2.81-.75,5,.52,6.32a4.24,4.24,0,0,0,3.12,1.1C68.09,63.88,72.82,61.37,76.7,57.49Z"/><path class="cls-2" d="M88.13,59.94c1,1,1.2,2.7.53,4.74a15.37,15.37,0,0,1-3.76,5.75c-2.57,2.57-5.62,4.16-8,4.16a3.46,3.46,0,0,1-2.51-.92c-1-1-1.2-2.7-.53-4.74a15.37,15.37,0,0,1,3.76-5.75c2.57-2.57,5.62-4.16,8-4.16A3.42,3.42,0,0,1,88.13,59.94Zm-4,9.74a14.35,14.35,0,0,0,3.51-5.33c.54-1.62.44-2.95-.27-3.66a2.4,2.4,0,0,0-1.77-.62c-2.05,0-4.89,1.51-7.23,3.85a14.35,14.35,0,0,0-3.51,5.33c-.54,1.62-.44,3,.27,3.66a2.4,2.4,0,0,0,1.77.62C79,73.53,81.81,72,84.15,69.68Z"/><path class="cls-2" d="M53,53.05c1.57,1.57,1.84,4.19.78,7.4a24.73,24.73,0,0,1-6.07,9.26c-4.13,4.13-9,6.7-12.79,6.7A5.36,5.36,0,0,1,31.09,75c-1.57-1.57-1.84-4.19-.78-7.4a24.73,24.73,0,0,1,6.07-9.26c4.13-4.13,9-6.7,12.79-6.7A5.29,5.29,0,0,1,53,53.05ZM47,69a23.67,23.67,0,0,0,5.81-8.85c.93-2.81.75-5-.52-6.32a4.24,4.24,0,0,0-3.12-1.11c-3.43,0-8.16,2.51-12,6.39a23.67,23.67,0,0,0-5.81,8.85c-.93,2.81-.75,5,.52,6.32A4.24,4.24,0,0,0,35,75.34C38.4,75.35,43.13,72.84,47,69Z"/><path class="cls-2" d="M23.36,64.52c1.57,1.57,1.84,4.19.78,7.4a24.73,24.73,0,0,1-6.07,9.26c-4.13,4.13-9,6.7-12.79,6.7a5.36,5.36,0,0,1-3.87-1.41C-.16,84.9-.43,82.28.63,79.07A24.73,24.73,0,0,1,6.7,69.81c4.13-4.13,9-6.7,12.79-6.7A5.34,5.34,0,0,1,23.36,64.52Zm-6,15.91a23.67,23.67,0,0,0,5.81-8.85c.93-2.81.75-5-.52-6.32a4.24,4.24,0,0,0-3.12-1.11c-3.43,0-8.16,2.51-12,6.39a23.67,23.67,0,0,0-5.81,8.85c-.93,2.81-.75,5,.52,6.32a4.24,4.24,0,0,0,3.12,1.1C8.71,86.83,13.44,84.32,17.33,80.43Z"/></pattern></defs><path class="cls-3" d="M60.6,50c-3.76,0-8.66-2.57-12.79-6.7A24.85,24.85,0,0,1,41.74,34c-1.06-3.2-.79-5.83.78-7.4a5.33,5.33,0,0,1,3.87-1.41c3.76,0,8.66,2.57,12.79,6.7a24.85,24.85,0,0,1,6.07,9.26c1.06,3.2.79,5.83-.78,7.4A5.33,5.33,0,0,1,60.6,50ZM46.39,26.26a4.24,4.24,0,0,0-3.12,1.1c-1.27,1.27-1.46,3.52-.52,6.32a23.75,23.75,0,0,0,5.81,8.85c3.88,3.88,8.61,6.39,12,6.39a4.2,4.2,0,0,0,3.12-1.11c1.27-1.27,1.46-3.52.52-6.32a23.75,23.75,0,0,0-5.81-8.85C54.55,28.77,49.83,26.26,46.39,26.26Z"/><path class="cls-3" d="M67.36,31.13c-2.35,0-5.41-1.59-8-4.16a15.25,15.25,0,0,1-3.76-5.75c-.68-2-.49-3.72.53-4.74a3.46,3.46,0,0,1,2.51-.92c2.35,0,5.41,1.59,8,4.16a15.25,15.25,0,0,1,3.76,5.75c.68,2,.49,3.72-.53,4.74A3.46,3.46,0,0,1,67.36,31.13Zm-8.7-14.52a2.41,2.41,0,0,0-1.77.62c-.71.71-.81,2-.27,3.66a14.27,14.27,0,0,0,3.51,5.33c2.34,2.34,5.18,3.85,7.23,3.85a2.41,2.41,0,0,0,1.77-.62c.71-.71.81-2,.27-3.66a14.27,14.27,0,0,0-3.51-5.33C63.55,18.12,60.71,16.61,58.66,16.61Z"/><rect class="cls-3" x="-327.46" width="1563.14" height="1000"/></svg>
